<?xml version="1.0" standalone="no"?><!DOCTYPE svg PUBLIC "-//W3C//DTD SVG 1.1//EN" "http://www.w3.org/Graphics/SVG/1.1/DTD/svg11.dtd" ><svg xmlns="http://www.w3.org/2000/svg"><metadata></metadata><defs><font id="DFPWaWaW5-GB" horiz-adv-x="1000"><font-face font-family="DFPWaWaW5-GB" font-weight="400" font-stretch="normal" units-per-em="1000" panose-1="4 11 5 0 0 0 0 0 0 0" ascent="860" descent="-140" x-height="0" bbox="23 -100 929 796" underline-thickness="50" underline-position="-110" unicode-range="U+0021-ff1a" /><missing-glyph horiz-adv-x="1000"  /><glyph glyph-name="" unicode="!" d="M235 591 Q235 521 226 410 Q215 272 198 221 Q190 219 173 219 Q149 219 141 224 Q139 241 139 266 Q139 463 169 642 Q177 643 185 643 Q215 643 234 634 Q235 614 235 591 ZM235 100 Q235 82 221 47 Q207 12 195 0 Q137 14 98 44 Q105 81 137 140 Q179 138 235 100 Z" /><glyph glyph-name="" unicode="." d="M198 100 Q198 83 183 48 Q168 12 156 0 Q96 14 55 44 Q63 81 96 140 Q139 138 198 100 Z" /><glyph glyph-name="" unicode="0" d="M657 298 Q657 181 562 90 Q466 0 348 0 Q213 0 118 90 Q23 179 23 313 Q23 447 112 543 Q203 643 336 643 Q374 643 418 630 Q466 615 493 592 Q493 580 482 564 Q471 547 460 540 Q396 572 332 572 Q233 572 163 488 Q97 408 97 307 Q97 208 172 138 Q248 67 348 67 Q432 67 510 143 Q587 219 587 303 Q587 375 567 421 Q550 460 498 520 Q517 551 542 564 Q657 471 657 298 Z" /><glyph glyph-name="" unicode="1" d="M429 628 Q429 546 354 3 Q342 0 328 0 Q304 0 288 8 Q306 240 350 554 Q268 534 218 526 Q202 559 202 583 Q240 599 321 621 Q401 643 418 643 Q429 643 429 628 Z" /><glyph glyph-name="" unicode="2" d="M583 534 Q583 491 489 338 Q388 173 327 77 Q369 72 411 72 Q469 72 531 81 Q540 75 543 52 Q546 34 544 21 Q501 0 390 0 Q281 0 229 31 Q249 85 384 308 Q510 517 510 529 Q510 552 469 563 Q440 571 406 571 Q288 571 125 484 Q104 505 96 540 Q154 583 244 613 Q334 643 405 643 Q482 643 521 627 Q583 602 583 534 Z" /><glyph glyph-name="" unicode="3" d="M592 488 Q592 405 457 256 Q561 173 561 97 Q561 45 486 19 Q433 0 372 0 Q350 0 324 3 Q318 18 318 32 Q318 52 320 61 Q393 68 415 72 Q489 85 489 111 Q489 136 362 248 Q409 307 456 365 Q521 453 521 491 Q521 532 473 554 Q436 571 387 571 Q285 571 124 473 Q95 494 87 528 Q244 643 383 643 Q468 643 524 610 Q592 569 592 488 Z" /><glyph glyph-name="" unicode="4" d="M619 137 Q542 121 498 115 Q493 66 485 3 Q475 0 458 0 Q439 0 425 6 Q425 40 429 106 Q366 100 283 100 Q141 100 61 122 Q61 342 181 643 Q212 641 239 624 Q187 444 177 405 Q146 279 139 180 Q169 172 283 172 Q371 172 435 177 L463 397 Q482 401 524 393 Q510 238 504 184 Q591 192 611 195 Q619 177 619 137 Z" /><glyph glyph-name="" unicode="5" d="M583 557 Q583 539 577 527 Q577 527 210 527 Q173 357 170 310 Q244 312 262 312 Q367 312 443 285 Q556 246 556 158 Q556 84 498 40 Q445 0 369 0 Q357 20 357 42 Q357 49 358 56 Q490 83 490 156 Q490 219 346 237 Q284 245 97 245 Q97 401 167 642 Q194 644 228 633 Q223 604 221 594 Q309 594 434 589 Q555 585 579 585 Q583 572 583 557 Z" /><glyph glyph-name="" unicode="6" d="M585 197 Q585 106 523 52 Q465 0 374 0 Q242 0 171 65 Q95 134 95 268 Q95 365 179 480 Q270 605 390 644 Q408 631 419 595 Q315 532 250 456 Q167 360 167 262 Q167 64 371 64 Q437 64 476 100 Q515 137 515 202 Q515 254 456 289 Q429 306 352 332 Q359 369 368 388 Q585 350 585 197 Z" /><glyph glyph-name="" unicode="7" d="M613 622 Q593 476 543 257 Q493 38 474 0 Q430 5 415 18 Q472 256 531 568 Q478 575 391 575 Q274 575 143 556 L169 361 Q153 350 108 346 Q80 441 67 610 Q83 622 204 633 Q319 643 411 643 Q564 643 613 622 Z" /><glyph glyph-name="" unicode="8" d="M562 575 Q559 544 524 522 Q429 577 354 577 Q303 577 252 549 Q193 517 193 471 Q193 433 220 403 Q238 384 281 356 Q416 422 529 452 Q541 436 544 426 Q549 410 549 398 Q479 367 358 316 Q428 280 462 247 Q511 198 511 134 Q511 70 453 32 Q404 0 338 0 Q239 0 190 31 Q128 70 128 164 Q128 244 219 315 Q118 377 118 471 Q118 554 201 603 Q270 643 358 643 Q406 643 463 624 Q520 605 562 575 ZM441 146 Q441 189 385 227 Q355 247 289 277 Q200 215 200 161 Q200 100 244 79 Q274 64 345 64 Q387 64 414 85 Q441 106 441 146 Z" /><glyph glyph-name="" unicode="9" d="M606 401 Q606 372 585 199 Q564 20 556 2 Q548 0 528 0 Q511 0 498 5 Q507 129 512 167 Q483 150 427 137 Q375 125 342 125 Q226 125 152 191 Q74 260 74 376 Q74 487 166 567 Q254 643 365 643 Q430 643 497 602 Q561 563 600 505 Q587 481 555 466 Q520 512 470 543 Q415 577 365 577 Q281 577 214 519 Q144 458 144 374 Q144 293 201 243 Q258 193 340 193 Q430 193 522 238 Q536 344 548 407 Q564 411 606 401 Z" /><glyph glyph-name="" unicode="g" d="M660 287 Q660 129 643 58 Q637 56 617 56 Q599 56 586 61 Q585 86 592 233 Q528 245 465 256 Q389 271 331 288 Q328 322 341 348 Q511 331 660 287 ZM561 581 Q559 569 551 552 Q543 536 534 528 Q458 576 362 576 Q263 576 189 496 Q115 416 115 316 Q115 219 170 147 Q230 69 323 69 Q354 69 397 77 Q449 87 469 101 Q488 76 494 46 Q465 24 405 11 Q354 0 312 0 Q187 0 110 98 Q40 188 40 316 Q40 445 138 544 Q235 643 364 643 Q482 643 561 581 Z" /><glyph glyph-name="" unicode="o" d="M456 182 Q456 134 422 92 Q388 50 339 36 Q319 65 314 86 Q345 101 368 128 Q390 156 390 185 Q390 234 339 283 Q358 311 383 322 Q456 267 456 182 ZM340 348 Q338 315 317 294 Q267 313 232 313 Q176 313 138 276 Q100 239 100 184 Q100 140 138 102 Q176 64 225 64 Q257 64 285 69 Q297 46 299 16 Q272 0 221 0 Q147 0 88 56 Q30 112 30 185 Q30 267 88 322 Q146 377 229 377 Q295 377 340 348 Z" /><glyph glyph-name="" unicode="&#x3001;" d="M353 49 Q353 41 333 23 Q313 5 302 0 Q267 25 220 78 Q172 131 147 171 Q165 201 197 215 Q230 192 280 138 Q329 85 353 49 Z" /><glyph glyph-name="" unicode="&#x3002;" d="M376 123 Q376 70 340 35 Q303 0 249 0 Q193 0 158 34 Q124 68 124 124 Q124 177 160 214 Q196 250 249 250 Q300 250 338 212 Q376 174 376 123 ZM315 124 Q315 154 296 174 Q277 195 248 195 Q181 195 181 124 Q181 58 248 58 Q315 58 315 124 Z" /><glyph glyph-name="" unicode="&#xff01;" d="M582 668 Q582 588 572 460 Q559 300 540 245 Q535 244 517 244 Q488 244 480 248 Q478 264 478 293 Q478 522 513 721 Q520 722 529 722 Q563 722 581 714 Q582 695 582 668 ZM570 104 Q570 87 554 48 Q538 10 526 -2 Q462 13 418 45 Q426 83 462 147 Q506 145 570 104 Z" /><glyph glyph-name="" unicode="&#xff0c;" d="M324 81 Q324 -15 278 -100 Q247 -100 233 -88 Q241 -42 248 13 Q199 29 177 56 Q184 107 225 148 Q240 148 274 135 Q305 124 321 114 Q324 101 324 81 Z" /><glyph glyph-name="" unicode="&#xff1a;" d="M329 450 Q329 432 312 392 Q296 353 283 340 Q215 356 171 388 Q179 426 217 494 Q264 492 329 450 ZM329 110 Q329 92 312 52 Q296 13 283 0 Q215 16 171 48 Q179 88 217 155 Q262 153 329 110 Z" /><glyph glyph-name="" unicode="&#x7231;" d="M786 777 Q794 746 794 711 Q519 661 240 648 Q226 672 226 715 Q495 753 786 777 ZM768 667 Q803 659 827 642 Q808 595 770 545 Q735 555 710 572 Q731 622 768 667 ZM210 328 Q276 328 347 326 Q379 370 411 413 Q442 400 465 380 Q447 351 429 324 Q590 320 775 308 Q775 277 769 243 Q573 243 382 253 Q370 235 358 218 Q319 159 288 117 Q274 95 261 79 Q250 62 237 49 Q198 61 182 88 Q211 132 288 245 Q293 253 297 258 Q252 261 208 264 L208 299 Q208 313 210 328 ZM352 106 Q457 79 562 53 Q583 91 602 127 Q479 139 375 157 Q375 189 382 217 Q538 214 704 183 Q681 113 636 35 Q719 15 802 -4 Q802 -34 791 -59 Q690 -50 596 -31 Q579 -60 559 -88 Q523 -74 501 -54 Q512 -35 523 -16 Q423 7 331 39 Q340 81 352 106 ZM516 647 Q551 639 575 621 Q560 575 530 528 Q495 537 469 555 Q486 602 516 647 ZM280 634 Q307 598 318 526 Q288 509 258 506 Q227 551 222 618 Q246 629 280 634 ZM199 503 Q216 503 232 497 Q232 430 220 346 Q209 342 185 342 Q162 342 152 350 Q152 450 164 501 Q179 503 199 503 ZM304 512 Q593 512 870 490 Q865 395 865 308 Q855 304 835 304 Q822 304 801 306 Q801 344 802 426 Q556 426 306 448 Q302 462 302 482 Q302 496 304 512 Z" /><glyph glyph-name="" unicode="&#x516b;" d="M291 521 Q330 516 356 499 Q322 395 283 293 Q262 242 248 202 Q238 174 228 151 Q220 123 199 88 Q165 99 139 120 Q217 339 291 521 ZM595 658 Q762 398 907 138 Q889 109 849 92 Q684 351 539 619 Q568 644 595 658 Z" /><glyph glyph-name="" unicode="&#x672c;" d="M447 518 Q292 522 141 529 Q135 548 135 565 Q135 584 141 601 Q304 598 467 593 Q467 656 468 727 Q489 731 507 731 Q526 731 543 727 Q543 650 543 591 Q690 587 836 582 Q841 565 841 544 Q841 529 836 512 Q688 513 544 516 Q544 414 544 378 Q546 327 546 144 Q630 143 683 137 Q686 128 686 107 Q686 83 683 76 Q669 70 546 70 L546 -31 Q537 -37 513 -37 Q487 -37 478 -33 Q474 14 471 70 Q353 71 340 76 Q336 89 336 108 Q336 126 342 141 Q401 143 468 144 Q465 248 465 380 L465 437 Q329 295 169 152 Q138 172 124 205 Q277 360 447 518 ZM755 380 Q826 317 883 238 Q865 218 836 198 Q765 250 706 340 Q730 363 755 380 Z" /><glyph glyph-name="" unicode="&#x5e76;" d="M696 737 Q724 730 752 718 Q740 639 704 591 Q683 591 650 607 Q661 675 696 737 ZM175 562 Q510 551 850 537 L850 507 Q850 484 846 470 Q513 472 171 492 Q167 505 167 528 Q167 545 175 562 ZM322 737 Q369 682 409 624 Q391 599 356 585 Q307 638 267 698 Q294 720 322 737 ZM876 267 Q880 253 880 236 L880 204 Q801 198 724 193 Q730 76 731 -35 Q720 -40 700 -40 Q680 -40 669 -37 Q656 77 649 187 Q512 178 378 172 Q380 71 380 -31 Q369 -37 346 -37 Q327 -37 314 -35 Q307 67 303 168 Q219 164 135 161 Q129 193 129 226 Q216 233 301 239 Q298 325 298 411 Q315 412 336 414 Q357 414 370 412 Q374 328 376 244 Q439 248 500 251 Q572 255 645 258 Q640 342 639 424 Q657 428 673 428 L707 428 Q715 343 720 261 Q798 265 876 267 Z" /><glyph glyph-name="" unicode="&#x5e38;" d="M770 727 Q792 698 801 667 Q743 625 676 612 Q655 640 644 669 Q706 707 770 727 ZM526 758 Q542 758 555 754 Q561 691 561 647 Q561 611 559 584 Q703 582 842 576 Q854 473 854 379 Q844 375 826 375 Q813 375 793 377 Q785 420 777 514 Q551 514 322 525 Q318 538 318 558 Q318 571 320 587 Q405 587 489 586 Q486 614 486 647 Q486 703 496 754 Q511 758 526 758 ZM345 737 Q378 702 391 632 Q360 615 328 611 Q290 655 283 719 Q310 732 345 737 ZM210 581 Q228 581 244 575 Q244 486 234 374 Q222 370 199 370 Q175 370 166 378 Q166 511 175 579 Q191 581 210 581 ZM526 467 Q606 467 659 461 Q662 424 662 381 Q662 341 657 307 Q621 302 547 302 Q450 302 380 310 Q376 346 376 390 Q376 420 380 462 Q441 467 526 467 ZM441 411 L441 357 L594 357 L594 411 L441 411 ZM327 222 Q349 222 357 218 Q357 215 358 213 Q398 215 483 218 Q482 245 482 270 Q497 271 516 273 Q535 273 547 271 Q550 244 552 218 Q734 212 734 203 Q740 160 740 131 Q740 53 732 13 Q710 9 674 9 Q645 9 624 15 Q620 31 620 54 Q649 54 673 60 Q672 106 668 149 Q603 152 556 153 Q562 49 562 -57 Q552 -62 532 -62 Q515 -62 503 -60 Q489 46 485 154 Q401 154 365 155 Q371 88 371 19 Q361 11 341 11 Q325 11 313 15 Q299 115 297 214 Q307 220 327 222 Z" /><glyph glyph-name="" unicode="&#x5021;" d="M567 730 Q707 724 853 707 Q865 666 865 546 Q865 486 861 435 Q851 421 634 421 Q533 421 475 432 Q459 543 459 692 L523 692 Q526 648 528 610 Q589 604 651 593 Q651 568 645 538 Q585 538 531 548 Q532 518 532 491 Q596 484 699 484 Q767 484 797 481 Q797 559 791 648 Q677 656 565 669 Q565 701 567 730 ZM491 155 Q489 110 487 66 Q672 55 820 55 Q820 171 818 282 Q680 284 555 303 L555 335 Q555 354 559 367 Q717 364 888 347 Q896 269 896 173 Q896 35 890 -6 Q831 -11 642 -11 Q506 -11 418 11 Q414 39 414 174 Q414 228 427 350 Q460 350 498 344 Q497 280 494 217 Q605 215 744 204 Q744 175 738 143 Q614 143 491 155 ZM343 525 Q357 500 357 467 Q291 442 232 425 Q265 291 280 148 Q251 139 217 139 Q183 272 165 406 Q120 395 78 387 Q66 412 66 442 Q206 511 343 525 Z" /><glyph glyph-name="" unicode="&#x6210;" d="M239 199 Q225 104 209 9 Q164 9 142 25 Q167 216 201 406 Q228 404 264 396 Q256 328 247 260 Q349 248 453 234 Q453 180 451 131 Q451 83 445 8 Q416 8 384 6 Q359 8 335 10 Q332 29 332 49 Q357 53 383 53 Q383 119 387 177 Q311 187 239 199 ZM781 563 Q785 550 785 531 Q785 506 783 496 Q716 493 650 491 Q690 377 730 265 Q767 297 807 326 Q834 308 843 283 Q801 230 759 186 Q780 127 801 69 Q824 77 851 87 Q861 68 867 40 Q823 15 758 7 Q731 72 707 134 Q660 91 613 54 Q587 72 573 95 Q619 159 675 215 Q621 354 576 488 Q379 481 178 479 Q174 510 174 544 Q349 551 553 557 Q533 619 515 679 Q539 694 578 700 Q602 628 626 559 Q703 561 781 563 ZM795 737 Q839 684 875 620 Q852 599 820 584 Q772 639 740 701 Q763 720 795 737 Z" /><glyph glyph-name="" unicode="&#x8bda;" d="M406 539 Q529 537 650 529 Q631 589 614 647 Q638 663 678 669 Q702 596 726 524 Q802 519 876 511 Q876 482 870 455 Q808 455 748 457 Q774 380 799 305 Q827 324 856 342 Q880 324 894 293 Q867 264 824 234 Q840 190 855 147 Q877 154 904 162 Q914 142 920 114 Q876 90 811 83 Q787 140 766 196 Q737 178 703 159 Q678 184 667 210 Q701 237 740 265 Q703 364 672 460 Q535 466 400 480 Q400 511 406 539 ZM466 434 Q496 428 521 414 Q506 354 489 292 Q553 282 616 270 Q616 144 605 33 Q585 28 558 28 Q527 28 505 31 Q503 57 503 77 Q528 78 549 78 Q551 143 555 220 Q512 227 474 235 Q452 152 426 63 Q395 65 372 80 Q408 270 466 434 ZM787 674 Q841 655 892 624 Q884 605 863 572 Q806 593 757 623 Q769 654 787 674 ZM115 476 Q196 464 286 445 Q280 286 260 132 Q294 128 330 124 Q330 102 326 72 Q264 72 190 82 Q198 235 218 393 Q162 404 107 420 Q107 448 115 476 ZM174 647 Q236 639 310 598 Q304 574 292 553 Q216 559 158 600 Q164 625 174 647 Z" /><glyph glyph-name="" unicode="&#x51fa;" d="M208 637 Q240 637 271 633 Q271 517 269 449 Q359 444 451 440 Q450 477 450 513 Q450 609 456 712 Q471 716 489 716 Q508 716 522 712 Q528 607 528 519 L528 437 Q607 434 688 432 Q688 402 684 371 Q589 371 527 372 Q526 220 521 93 Q614 89 708 87 Q708 57 704 26 Q486 26 421 32 Q254 36 168 49 L168 114 Q168 192 177 271 Q210 271 242 267 Q242 164 240 104 Q349 99 459 95 Q453 228 451 375 Q438 376 429 377 Q277 381 199 394 L199 459 Q199 548 208 637 ZM801 258 Q817 172 818 103 Q800 93 757 93 Q737 162 737 252 Q770 258 801 258 ZM779 640 Q793 527 794 438 Q777 428 734 428 Q714 518 714 634 Q747 640 779 640 Z" /><glyph glyph-name="" unicode="&#x4ece;" d="M756 637 Q788 619 816 595 Q739 455 657 312 Q780 225 903 127 Q892 97 859 73 Q729 153 621 249 Q556 135 487 20 Q453 36 427 64 Q554 311 756 637 ZM370 578 Q405 563 431 541 Q379 429 317 315 Q376 279 439 230 Q428 203 405 172 Q340 201 283 247 Q254 192 230 149 Q213 116 199 91 Q186 67 171 47 Q128 60 110 90 Q143 157 231 326 Q297 448 370 578 Z" /><glyph glyph-name="" unicode="&#x5927;" d="M516 705 Q552 694 583 674 Q547 595 513 522 Q680 516 844 503 Q844 469 839 437 Q654 437 475 443 Q364 214 259 36 Q222 46 199 68 Q254 190 384 447 Q253 452 126 461 Q126 499 134 530 Q280 530 424 525 Q467 610 516 705 ZM586 220 Q705 158 824 82 Q812 55 788 26 Q655 85 552 157 Q568 192 586 220 Z" /><glyph glyph-name="" unicode="&#x5f53;" d="M796 608 Q818 580 827 549 Q764 494 691 476 Q669 505 659 534 Q726 583 796 608 ZM214 571 Q281 562 359 515 Q352 486 337 459 Q257 466 195 513 Q202 545 214 571 ZM505 706 Q523 706 536 702 Q542 636 542 590 Q542 494 536 441 Q527 435 505 435 Q483 435 474 441 Q463 502 463 590 Q463 649 474 702 Q490 706 505 706 ZM237 389 Q358 389 476 387 Q646 379 773 360 Q786 323 786 195 Q786 35 780 10 Q700 -16 292 -16 Q285 -7 285 14 Q285 34 288 45 Q387 52 715 64 Q715 132 708 296 Q548 299 235 324 Q233 341 233 357 Q233 376 237 389 ZM448 214 Q538 214 593 207 Q596 198 596 178 Q596 156 593 149 Q579 144 448 144 Q326 144 314 149 Q311 161 311 180 Q311 197 316 210 Q375 214 448 214 Z" /><glyph glyph-name="" unicode="&#x515a;" d="M743 707 Q764 678 773 648 Q718 606 655 592 Q633 621 623 650 Q682 687 743 707 ZM491 733 Q507 733 520 728 Q526 665 526 621 Q526 578 523 550 Q692 547 856 539 Q861 436 861 342 Q851 338 832 338 Q820 338 800 340 Q795 384 790 478 Q552 478 310 491 Q306 505 306 524 Q306 537 308 552 Q382 552 455 551 Q451 583 451 621 Q451 678 461 728 Q476 733 491 733 ZM318 692 Q344 661 354 598 Q321 579 287 576 Q258 616 253 674 Q281 687 318 692 ZM168 570 Q186 570 202 565 Q202 455 190 319 Q178 316 155 316 Q131 316 122 323 Q122 485 133 568 Q149 570 168 570 ZM425 414 Q570 412 708 398 Q717 379 717 308 Q717 229 713 191 Q646 181 486 181 Q390 181 307 196 Q294 228 294 305 Q294 329 299 392 Q312 396 332 396 Q347 396 362 392 Q362 363 366 252 Q505 245 642 245 Q647 266 647 308 Q647 323 645 340 Q471 349 428 354 Q423 363 423 386 Q423 400 425 414 ZM360 158 Q398 154 424 137 Q402 91 377 46 Q364 24 356 6 Q349 -6 343 -16 Q337 -28 324 -44 Q290 -33 264 -12 Q313 81 360 158 ZM596 146 Q608 146 625 142 Q622 73 622 16 L746 16 L746 59 Q761 61 771 61 Q787 61 798 59 Q802 32 802 7 Q802 -23 798 -35 Q759 -45 668 -45 Q582 -45 557 -35 Q557 54 563 144 Q573 146 596 146 Z" /><glyph glyph-name="" unicode="&#x5bfc;" d="M227 748 Q352 748 473 746 Q627 743 742 734 Q754 697 754 569 Q754 516 744 508 Q673 488 324 487 Q323 415 321 399 Q428 392 638 388 Q638 349 635 327 Q617 322 535 322 Q353 323 258 336 Q251 336 251 611 Q251 639 256 681 Q240 681 225 682 Q223 699 223 715 Q223 734 227 748 ZM325 678 L325 553 Q432 558 679 565 Q679 595 677 668 Q550 670 325 678 ZM678 223 Q766 223 819 217 Q823 208 823 189 Q823 167 819 160 Q806 155 678 155 L655 155 Q668 33 668 -46 Q632 -52 598 -52 Q545 -52 528 -42 Q524 -36 524 -20 Q524 -5 526 5 Q560 3 594 3 Q591 81 586 155 Q234 156 198 160 Q195 172 195 190 Q195 207 200 220 Q376 222 582 223 Q580 256 578 287 Q606 293 638 295 Q643 257 647 223 L678 223 ZM358 108 Q389 69 401 -9 Q373 -24 345 -28 Q310 21 303 93 Q327 104 358 108 Z" /><glyph glyph-name="" unicode="&#x9053;" d="M735 732 Q768 725 789 709 Q775 657 751 603 Q794 599 836 594 Q836 564 831 536 Q744 536 659 540 Q657 528 654 512 Q651 494 647 478 Q739 473 834 465 Q842 378 842 270 Q842 133 836 93 Q780 87 599 87 Q481 87 405 111 Q402 138 402 266 Q402 326 415 461 Q445 461 481 456 Q480 414 479 373 Q496 374 520 374 Q555 374 575 373 Q579 360 579 343 Q579 328 577 315 Q558 309 516 309 Q493 309 476 310 Q476 291 475 273 Q492 274 516 274 Q545 274 562 272 Q566 259 566 243 Q566 228 564 215 Q548 209 512 209 Q489 209 472 210 Q471 187 470 163 Q635 150 766 150 Q766 281 764 407 Q634 408 516 425 L516 455 Q516 472 519 483 Q546 482 573 481 Q575 509 582 544 Q481 549 383 560 Q383 593 390 620 Q538 620 683 609 Q703 673 735 732 ZM558 730 Q573 684 574 648 Q556 638 513 638 Q494 675 494 724 Q527 730 558 730 ZM145 520 Q204 515 258 504 Q256 489 254 474 Q252 452 248 441 Q220 441 193 446 Q166 449 138 457 Q138 487 145 520 ZM95 367 Q197 358 278 342 Q262 270 239 209 Q280 197 321 180 Q317 129 295 49 Q405 31 484 24 Q484 10 482 -4 Q482 -21 472 -37 Q341 -33 225 0 Q233 57 251 127 Q196 147 151 160 Q170 225 192 287 Q142 299 91 309 Q89 319 89 338 Q89 350 95 367 Z" /><glyph glyph-name="" unicode="&#x5fb7;" d="M555 495 Q529 497 515 498 Q510 506 510 528 Q510 541 511 554 Q556 554 598 553 Q599 578 600 601 Q517 605 437 612 L437 642 Q437 654 438 666 Q516 666 604 663 Q608 701 615 727 Q630 729 649 729 Q665 729 680 724 Q680 693 678 660 Q763 656 855 650 Q855 624 850 594 Q760 594 672 598 Q670 574 666 550 Q756 546 841 539 Q849 520 849 451 Q849 382 845 349 Q768 340 583 340 Q498 340 423 353 Q412 381 412 449 Q412 474 415 536 Q426 540 444 540 Q457 540 471 536 Q471 509 476 403 Q631 397 784 397 Q788 415 788 451 Q788 466 786 485 Q755 486 729 487 Q727 457 721 424 Q711 420 690 420 Q670 420 661 427 Q661 464 665 490 Q638 491 618 492 Q617 459 612 424 Q601 420 581 420 Q560 420 552 427 Q552 469 555 495 ZM564 163 Q583 163 597 161 Q601 109 607 54 Q682 54 770 57 Q776 45 776 31 Q776 14 774 3 Q753 -6 686 -6 Q577 -6 546 0 Q533 83 533 159 Q552 163 564 163 ZM784 297 Q786 286 786 272 L786 245 Q615 228 448 228 Q443 255 443 284 Q603 297 784 297 ZM862 208 Q888 176 898 111 Q872 97 846 94 Q816 134 811 193 Q833 203 862 208 ZM728 176 Q756 151 767 100 Q741 85 715 82 Q683 115 677 162 Q699 172 728 176 ZM412 185 Q441 178 470 165 Q458 95 424 53 Q402 53 368 69 Q378 129 412 185 ZM348 622 Q360 593 360 566 Q244 528 118 517 Q108 544 106 573 Q215 607 348 622 ZM350 418 Q362 389 362 362 Q313 349 264 340 Q286 229 291 124 Q264 118 227 118 Q204 221 197 329 Q160 324 123 321 Q113 349 111 378 Q219 406 350 418 Z" /><glyph glyph-name="" unicode="&#x5f97;" d="M337 584 Q349 555 349 528 Q253 498 147 488 Q137 516 135 545 Q226 572 337 584 ZM352 405 Q364 376 364 349 Q323 338 282 331 Q299 238 303 150 Q276 144 239 144 Q221 230 214 321 Q182 317 152 315 Q142 342 140 371 Q236 395 352 405 ZM553 741 Q714 735 843 722 Q843 530 824 439 Q781 432 597 432 Q503 432 437 452 Q423 558 420 704 Q451 708 482 708 Q487 663 490 617 Q520 619 560 620 Q626 620 659 619 L659 565 Q596 558 494 557 Q497 530 498 503 Q643 492 765 492 Q765 557 773 663 Q651 668 551 684 Q551 714 553 741 ZM401 268 Q549 268 731 259 Q730 295 729 327 Q602 316 479 316 Q473 345 473 376 Q649 396 847 396 Q849 384 849 368 L849 339 Q821 336 796 333 Q800 293 802 255 Q847 253 891 250 Q891 222 885 190 Q845 190 806 191 Q812 90 815 -11 Q791 -21 736 -21 Q694 -21 673 -17 Q667 6 667 27 Q709 31 746 31 Q738 113 733 192 Q564 196 399 209 L399 241 Q399 255 401 268 ZM560 148 Q583 119 593 60 Q564 44 536 41 Q510 78 506 133 Q529 144 560 148 Z" /><glyph glyph-name="" unicode="&#x7684;" d="M226 521 Q239 520 251 520 Q278 580 321 635 Q356 627 379 610 Q361 562 331 514 Q393 508 447 501 Q447 211 427 73 Q404 63 304 63 Q202 63 131 84 Q116 253 112 483 Q145 487 178 487 Q183 410 187 331 Q204 332 228 332 Q276 332 303 330 Q307 316 307 299 Q307 284 305 271 Q280 266 224 266 Q205 266 190 267 Q193 203 195 139 Q289 130 369 130 Q369 249 376 441 Q293 446 224 462 Q224 493 226 521 ZM659 616 Q685 607 710 587 Q684 527 654 465 Q768 457 883 445 Q883 263 872 103 Q848 97 816 97 Q783 97 759 101 Q757 128 757 149 Q789 151 815 151 Q817 261 821 390 Q717 397 625 405 Q596 350 566 295 Q534 303 508 330 Q578 478 659 616 ZM565 237 Q619 211 680 170 Q670 146 650 118 Q587 142 531 185 Q549 215 565 237 Z" /><glyph glyph-name="" unicode="&#x53d1;" d="M670 653 Q747 622 817 569 Q803 535 776 514 Q697 549 634 598 Q651 629 670 653 ZM467 691 Q504 687 530 670 Q503 610 449 489 Q576 479 752 466 Q756 453 756 439 Q756 424 752 407 Q572 407 418 421 Q346 258 237 14 Q203 19 177 34 Q230 212 333 429 Q245 439 166 453 Q184 559 220 650 Q227 652 248 652 Q270 650 281 645 Q264 577 249 506 Q298 502 366 496 Q413 591 467 691 ZM452 322 Q608 314 767 264 Q767 234 674 107 Q728 89 779 71 Q775 42 759 15 Q693 32 633 52 Q600 9 561 -41 Q534 -29 508 -8 Q540 37 566 73 Q517 90 470 109 Q480 138 492 165 Q550 148 607 130 Q641 178 667 212 Q564 239 441 264 Q441 295 452 322 Z" /><glyph glyph-name="" unicode="&#x8303;" d="M358 755 Q365 718 370 682 Q501 680 631 677 Q637 720 647 761 Q665 763 684 763 Q707 761 715 757 Q712 715 707 674 Q784 672 859 669 L859 641 Q859 620 855 609 L698 609 Q691 570 683 532 Q675 528 648 528 Q626 528 613 534 Q616 573 621 610 Q490 611 380 613 Q385 577 389 542 Q356 536 323 536 Q313 576 306 615 Q223 618 154 621 Q151 628 151 652 Q151 668 156 684 Q227 684 295 683 Q290 717 288 749 Q321 755 358 755 ZM143 304 Q224 298 298 286 Q295 271 293 256 Q291 234 287 224 Q249 224 212 229 Q174 233 136 241 Q136 271 143 304 ZM212 503 Q286 474 373 432 Q366 402 350 369 Q264 395 188 440 Q199 474 212 503 ZM337 132 Q362 104 362 72 Q320 31 193 -11 Q176 12 170 42 Q247 102 337 132 ZM479 333 Q516 329 545 323 Q524 194 501 64 Q614 43 734 28 Q734 1 724 -26 Q568 -21 427 21 Q445 175 479 333 ZM469 462 Q646 458 831 443 Q832 360 832 290 Q832 213 820 167 Q767 159 693 159 Q688 186 688 213 Q724 217 764 219 Q766 275 766 378 Q613 389 467 400 Q465 413 465 433 Q465 447 469 462 Z" /><glyph glyph-name="" unicode="&#x5206;" d="M569 369 Q647 369 746 361 Q751 289 751 199 L751 49 Q732 45 686 45 Q647 45 618 49 Q614 63 614 76 L614 98 Q648 102 681 102 Q681 185 675 293 Q568 294 469 294 Q453 231 430 166 Q417 128 401 88 Q394 72 387 50 Q380 30 368 9 Q334 16 301 30 Q345 171 392 295 Q333 296 275 296 Q269 315 269 329 Q269 344 275 361 Q364 369 569 369 ZM347 697 Q376 675 401 646 Q370 614 318 571 Q292 549 262 523 Q229 493 196 471 Q167 491 149 520 Q246 615 347 697 ZM651 669 Q753 627 852 574 Q850 539 822 514 Q715 559 624 610 Q636 646 651 669 Z" /><glyph glyph-name="" unicode="&#x606d;" d="M125 645 Q220 645 314 643 Q312 703 312 763 Q329 765 351 767 Q372 767 386 765 Q389 702 391 640 Q516 636 638 628 Q645 693 655 753 Q672 755 691 755 Q714 753 721 749 Q718 685 713 623 Q779 618 844 612 L844 585 Q844 564 841 554 Q771 554 707 555 Q700 482 690 412 Q776 415 865 417 Q869 405 869 387 Q869 363 867 353 Q807 350 748 347 Q815 291 879 231 Q860 204 829 189 Q730 260 653 343 Q510 336 366 333 Q334 275 290 208 Q262 167 235 125 Q207 79 183 49 Q149 63 130 85 Q212 228 278 331 Q211 330 146 329 Q142 359 142 391 Q231 395 326 399 Q319 483 316 567 Q210 574 124 583 Q120 590 120 614 Q120 629 125 645 ZM620 410 Q624 486 630 556 Q502 558 394 563 Q396 483 396 402 Q505 406 620 410 ZM570 245 Q597 51 597 -32 Q570 -42 535 -42 Q499 -42 472 -38 Q464 -16 464 5 Q490 13 527 13 Q517 128 511 239 Q540 245 570 245 ZM347 150 Q379 142 412 127 Q393 64 357 0 Q322 8 297 29 Q320 95 347 150 ZM854 152 Q877 122 887 64 Q862 50 838 48 Q811 84 806 138 Q826 147 854 152 ZM723 133 Q745 102 754 41 Q726 25 698 22 Q673 61 669 117 Q692 128 723 133 Z" /><glyph glyph-name="" unicode="&#x516c;" d="M382 680 Q413 661 434 632 Q347 522 157 375 Q121 394 107 427 Q238 567 382 680 ZM757 196 Q777 162 792 129 Q808 95 820 67 Q792 46 756 39 Q716 102 692 170 Q727 187 757 196 ZM465 394 Q497 383 531 362 Q460 214 398 93 Q516 84 637 72 Q637 39 630 8 Q349 11 279 40 Q309 109 366 217 Q410 300 465 394 ZM652 704 Q773 602 891 494 Q869 463 834 446 Q701 542 599 656 Q616 691 652 704 Z" /><glyph glyph-name="" unicode="&#x89c2;" d="M759 183 Q777 183 792 179 Q796 114 797 46 Q845 46 897 44 L897 19 Q897 -3 895 -9 Q882 -15 828 -15 Q764 -15 727 -7 Q727 81 728 181 Q740 183 759 183 ZM516 689 Q534 689 549 681 Q552 544 552 410 Q552 324 549 244 Q538 242 516 242 Q498 242 487 244 Q476 323 476 405 Q476 541 485 681 Q502 689 516 689 ZM591 713 Q732 710 884 694 Q888 655 888 430 Q884 264 875 247 Q868 244 844 244 Q825 244 816 251 Q816 489 813 635 Q766 635 702 642 Q614 647 588 651 Q588 688 591 713 ZM712 554 Q746 548 771 533 Q676 254 546 -25 Q515 -20 491 0 Q593 291 712 554 ZM232 568 Q348 567 418 561 Q416 502 329 287 Q401 262 470 233 Q468 205 457 180 Q394 180 299 214 Q270 146 237 70 Q200 77 179 96 Q203 169 227 242 Q178 262 123 290 Q126 321 136 345 Q195 331 252 313 Q284 407 317 500 Q253 498 193 498 Q130 498 122 500 Q115 528 115 559 Q165 566 232 568 Z" /><glyph glyph-name="" unicode="&#x89c4;" d="M154 565 Q211 563 268 559 Q281 612 293 661 Q327 656 354 643 Q347 598 340 554 Q386 550 431 545 Q431 520 425 488 Q374 488 328 491 Q316 434 304 379 Q371 384 438 388 Q442 361 442 329 Q362 317 288 311 Q280 275 270 238 Q263 209 255 171 Q247 137 233 99 Q202 106 172 119 Q192 215 211 306 Q163 304 117 304 Q111 331 111 360 Q168 367 225 372 Q239 436 253 496 Q200 500 152 508 Q152 537 154 565 ZM334 238 Q391 228 447 205 Q444 179 431 149 Q359 161 314 184 Q325 219 334 238 ZM750 183 Q767 183 783 179 Q788 114 789 46 Q832 46 877 44 L877 19 Q877 -3 875 -9 Q865 -15 821 -15 Q756 -15 719 -7 Q719 81 718 181 Q730 183 750 183 ZM523 689 Q541 689 555 681 Q559 544 559 410 Q559 324 555 244 Q545 242 523 242 Q505 242 494 244 Q483 323 483 405 Q483 541 492 681 Q508 689 523 689 ZM593 713 Q724 710 864 694 Q872 655 872 430 Q869 264 859 247 Q852 244 829 244 Q809 244 800 251 Q800 489 794 635 Q751 635 693 642 Q613 647 590 651 Q590 688 593 713 ZM703 554 Q738 548 762 533 Q674 254 553 -25 Q521 -20 498 0 Q593 291 703 554 Z" /><glyph glyph-name="" unicode="&#x56fd;" d="M299 582 Q518 582 734 565 L734 536 Q734 515 730 504 Q623 504 534 506 Q533 439 532 376 Q627 373 721 367 L721 339 Q721 318 718 307 Q617 307 531 308 Q531 273 530 241 Q530 214 527 191 Q580 193 635 195 Q638 183 638 166 Q638 143 637 134 Q489 123 335 121 Q331 150 331 180 Q390 184 453 187 Q452 210 452 233 Q452 272 453 310 Q348 312 269 317 Q266 324 266 349 Q266 364 271 380 Q363 380 455 378 Q456 443 460 508 Q368 511 297 517 Q293 525 293 550 Q293 566 299 582 ZM561 734 Q737 734 885 722 Q893 537 893 388 Q893 127 880 6 Q732 -4 489 -4 Q236 -4 139 2 Q123 271 119 601 Q133 605 151 605 Q173 605 185 601 Q197 328 205 63 Q518 63 815 65 L815 659 Q689 663 547 665 Q379 661 239 661 Q235 677 235 691 Q235 710 237 722 Q348 732 561 734 ZM725 275 Q753 242 764 175 Q736 159 708 156 Q676 198 671 260 Q694 271 725 275 Z" /><glyph glyph-name="" unicode="&#x6838;" d="M249 598 Q270 598 280 594 Q286 523 291 450 L292 450 Q380 450 415 444 Q416 433 416 417 L416 388 Q402 380 295 380 Q297 331 299 283 Q348 263 395 238 Q387 211 370 184 Q331 194 301 208 Q302 138 302 65 Q291 61 269 61 Q244 61 236 63 Q230 143 226 218 Q185 189 128 158 Q103 184 91 211 Q148 256 222 302 Q220 342 219 381 Q148 383 111 388 Q107 402 107 419 Q107 437 109 448 Q156 449 217 450 Q215 523 215 592 Q221 596 249 598 ZM624 522 Q654 507 682 485 Q601 409 516 343 Q582 312 648 276 Q727 334 808 391 Q835 373 855 348 Q706 226 523 101 Q494 120 480 151 Q534 192 588 233 Q496 276 422 330 Q530 447 624 522 ZM813 217 Q838 201 856 178 Q825 139 778 94 Q841 61 905 24 Q893 -1 870 -28 Q788 4 722 44 Q686 12 644 -21 Q615 -6 603 22 Q703 130 813 217 ZM685 718 Q690 671 694 627 Q716 627 738 627 Q831 627 888 620 Q891 611 891 590 Q891 567 888 560 Q873 555 738 555 Q461 555 436 560 Q432 572 432 592 Q432 609 437 623 Q523 626 620 626 Q612 669 609 711 Q645 718 685 718 Z" /><glyph glyph-name="" unicode="&#x548c;" d="M498 681 Q512 654 512 619 Q321 580 149 563 Q137 590 137 621 Q319 671 498 681 ZM130 426 Q211 423 293 421 Q294 485 297 550 Q313 554 331 554 Q350 554 364 550 Q368 479 369 418 Q445 415 519 412 L519 385 Q519 364 515 350 Q443 351 370 353 L370 275 Q429 256 489 240 Q489 214 480 179 Q420 187 369 206 Q367 113 363 35 Q355 31 330 31 Q310 31 302 35 Q296 112 294 195 Q235 162 135 129 Q120 151 114 178 Q198 239 293 272 Q292 312 292 351 L292 355 Q210 357 126 362 Q122 373 122 395 Q122 410 130 426 ZM682 443 Q795 438 885 425 Q885 256 866 176 Q845 163 755 163 Q658 163 591 182 Q571 283 566 420 Q598 424 630 424 Q645 333 653 235 Q738 230 809 230 Q809 283 816 370 Q741 375 680 389 Q680 418 682 443 Z" /><glyph glyph-name="" unicode="&#x4f1a;" d="M592 793 Q620 772 635 744 Q611 728 588 713 Q724 616 864 508 Q853 486 819 458 Q667 551 524 672 Q328 543 134 416 Q101 441 93 467 Q313 641 592 793 ZM368 480 Q488 480 647 463 Q647 433 641 398 Q502 398 366 416 L366 451 Q366 466 368 480 ZM794 278 Q798 263 798 246 L798 213 Q622 203 444 198 Q422 126 404 47 L530 47 Q582 47 651 51 Q658 29 658 4 Q611 -19 492 -19 Q352 -16 318 -7 Q338 96 372 195 Q287 192 204 190 Q199 224 199 257 Q346 264 495 269 Q642 275 794 278 ZM751 138 Q784 96 797 12 Q770 -3 744 -6 Q707 47 700 124 Q722 134 751 138 Z" /><glyph glyph-name="" unicode="&#x6d3b;" d="M722 457 Q812 457 867 450 Q871 442 871 421 Q871 399 867 392 Q853 387 722 387 L663 387 Q665 329 665 271 Q757 266 836 258 Q836 79 817 -6 Q774 -19 591 -19 Q497 -19 431 1 Q415 102 411 241 Q442 245 473 245 Q485 153 492 51 Q637 47 758 47 Q758 105 766 199 Q643 204 542 220 Q542 250 544 277 Q569 276 594 275 Q587 332 584 387 Q400 388 378 392 Q375 404 375 423 Q375 440 380 453 Q474 455 579 456 Q575 526 575 595 Q490 585 408 580 Q395 603 395 643 Q603 678 829 700 Q836 671 836 639 Q743 618 651 605 Q657 531 660 457 L722 457 ZM105 402 Q168 402 246 389 Q246 353 235 324 Q145 324 96 339 Q96 370 105 402 ZM187 659 Q255 652 335 611 Q328 579 311 551 Q229 557 167 598 Q174 632 187 659 ZM279 152 Q300 124 309 94 Q251 50 185 35 Q164 63 153 91 Q215 131 279 152 Z" /><glyph glyph-name="" unicode="&#x57fa;" d="M899 333 Q903 322 903 305 Q903 283 901 273 Q651 255 396 247 Q364 196 322 136 Q292 97 263 57 Q234 14 208 -15 Q175 -2 157 20 Q239 148 307 244 Q221 241 135 240 Q131 268 131 298 Q220 303 314 308 Q296 453 291 599 Q224 604 158 610 Q154 621 154 643 Q154 658 162 674 Q226 671 289 668 Q288 705 288 741 Q305 743 325 744 Q346 744 360 743 Q364 703 367 664 Q512 658 655 650 Q660 691 666 731 Q683 733 702 733 Q724 731 732 727 Q730 685 728 646 Q788 643 847 639 L847 611 Q847 590 843 576 Q782 577 723 579 Q714 452 697 326 Q796 329 899 333 ZM647 581 Q509 585 372 594 Q374 570 375 547 Q437 545 507 533 Q507 503 497 479 Q426 479 378 487 Q379 457 380 427 Q445 435 502 435 Q505 423 505 409 Q505 394 502 382 Q470 371 381 363 Q382 337 382 312 Q501 318 627 323 Q633 458 647 581 ZM736 252 Q820 185 903 114 Q883 87 852 72 Q760 135 689 209 Q705 240 736 252 ZM546 222 Q564 222 580 216 Q580 191 579 166 Q650 161 721 155 Q721 131 715 100 Q643 100 576 103 Q574 67 571 28 Q635 31 701 31 Q703 20 703 5 L703 -23 Q533 -42 366 -42 Q361 -14 361 15 Q428 22 499 25 Q499 71 501 107 Q436 112 376 119 Q376 148 378 174 Q442 173 505 170 Q507 198 510 220 Q526 222 546 222 Z" /><glyph glyph-name="" unicode="&#x79ef;" d="M440 666 Q455 640 455 605 Q278 566 119 549 Q107 576 107 607 Q275 656 440 666 ZM101 416 Q175 414 248 411 Q249 474 253 537 Q268 541 286 541 Q305 541 319 537 Q323 468 324 408 Q392 405 461 402 L461 375 Q461 354 457 340 Q390 341 325 343 L325 261 Q384 246 443 234 Q443 208 433 173 Q374 180 324 194 Q322 107 318 32 Q310 28 285 28 Q265 28 257 32 Q251 112 249 200 Q196 171 106 142 Q92 161 87 186 Q163 241 248 271 Q247 304 247 338 L247 345 Q171 348 97 352 Q93 364 93 385 Q93 401 101 416 ZM801 232 Q854 155 899 67 Q880 46 841 31 Q785 110 743 198 Q773 224 801 232 ZM595 241 Q627 226 656 203 Q610 112 543 23 Q537 23 512 38 Q489 52 486 59 Q528 138 595 241 ZM605 692 Q735 692 887 676 Q892 586 892 520 Q892 326 887 306 Q823 290 710 290 Q591 290 530 304 Q508 415 506 650 L573 650 Q583 505 587 362 Q633 357 708 357 Q780 357 818 362 Q814 497 814 618 Q704 618 605 631 L605 692 Z" /><glyph glyph-name="" unicode="&#x6781;" d="M260 606 Q282 606 291 602 Q298 537 302 469 Q367 468 393 463 Q395 452 395 437 L395 408 Q384 402 307 401 Q309 358 311 315 Q360 295 408 271 Q400 243 382 216 Q344 226 313 239 Q315 174 315 107 Q303 103 282 103 Q256 103 249 105 Q243 178 239 248 Q198 221 140 193 Q115 218 103 245 Q161 287 234 329 Q232 367 231 401 Q150 403 109 408 Q105 422 105 439 Q105 456 107 467 Q159 468 229 469 Q227 537 227 600 Q233 604 260 606 ZM418 685 Q621 670 839 645 Q813 536 771 416 Q817 405 869 393 Q833 273 791 159 Q846 146 897 132 Q889 100 875 72 Q818 83 767 95 Q749 48 730 4 Q690 10 667 27 Q682 71 697 112 Q629 130 566 149 Q574 185 586 209 Q655 194 721 177 Q753 264 787 347 Q734 355 687 365 Q720 478 754 590 Q576 603 409 622 Q409 658 418 685 ZM553 541 Q590 538 616 521 Q589 431 495 110 Q461 115 435 130 Q469 305 553 541 Z" /><glyph glyph-name="" unicode="&#x52a0;" d="M318 659 Q356 652 384 635 Q364 576 344 520 Q427 511 511 498 Q513 408 513 332 Q513 238 500 181 Q439 173 355 173 Q349 202 349 232 Q392 235 439 237 Q441 305 441 430 Q378 438 317 446 Q249 264 167 84 Q132 89 106 111 Q167 290 234 457 Q167 466 103 475 Q101 488 101 509 Q101 524 105 539 Q184 535 263 528 Q290 595 318 659 ZM708 444 Q822 439 913 426 Q913 256 893 175 Q873 161 786 161 Q686 161 617 182 Q601 287 598 432 Q630 436 663 436 Q674 340 680 235 Q764 230 835 230 Q835 283 842 368 Q767 374 706 389 Q706 418 708 444 Z" /><glyph glyph-name="" unicode="&#x4ef7;" d="M645 607 Q527 506 411 408 Q378 433 370 459 Q511 604 691 731 Q719 711 733 682 Q716 667 700 654 Q812 558 925 454 Q914 432 881 404 Q758 492 645 607 ZM796 369 Q818 207 819 56 Q808 51 788 51 Q768 51 757 53 Q732 211 728 364 Q746 369 762 369 L796 369 ZM490 356 Q524 356 556 348 Q556 318 543 206 Q536 134 523 64 Q491 64 461 70 Q461 166 490 356 ZM323 524 Q342 501 344 472 Q298 442 247 421 Q268 294 279 157 Q250 148 216 148 Q193 271 180 396 Q146 385 110 377 Q90 397 83 430 Q188 489 323 524 Z" /><glyph glyph-name="" unicode="&#x95f4;" d="M341 735 Q400 703 461 661 Q456 646 446 632 Q438 617 426 603 Q362 626 304 675 Q318 710 341 735 ZM230 488 Q246 488 258 485 Q265 250 265 -23 Q254 -27 236 -27 Q221 -27 207 -25 Q198 75 198 247 Q198 428 202 485 Q214 488 230 488 ZM591 620 Q713 613 841 596 Q847 432 847 307 Q847 108 838 0 Q808 -2 779 -2 Q742 -2 714 2 Q708 14 708 29 Q708 43 710 53 Q744 55 775 55 Q777 297 777 537 Q684 547 587 562 L587 591 Q587 603 591 620 ZM469 451 Q560 444 642 432 Q650 339 650 287 Q650 150 636 96 Q596 87 490 87 Q422 87 369 96 Q360 166 360 269 Q360 368 363 442 Q381 448 394 448 Q406 448 419 446 Q422 376 425 313 Q478 308 527 300 Q527 279 520 250 Q474 250 427 257 Q428 200 428 150 Q445 147 490 147 Q563 147 581 152 Q585 191 585 375 Q524 385 467 393 Q465 412 465 421 Q465 434 469 451 Z" /><glyph glyph-name="" unicode="&#x8df5;" d="M219 623 Q294 623 387 608 Q396 582 396 478 Q396 414 387 394 Q366 385 285 385 Q173 385 123 400 Q114 434 114 472 Q114 531 125 595 Q137 599 152 599 Q169 599 180 595 L180 459 Q245 453 326 453 Q328 503 328 549 Q268 557 215 570 L215 599 Q215 612 219 623 ZM268 360 Q285 360 300 355 L300 282 Q329 284 368 285 Q381 285 387 279 L387 223 Q353 220 299 219 Q298 191 298 161 Q320 160 341 160 Q345 151 345 131 Q345 115 343 104 Q304 99 246 99 Q181 99 124 105 Q118 189 118 306 Q147 310 174 310 Q177 242 179 163 Q206 163 232 162 Q232 290 234 358 Q249 360 268 360 ZM584 704 Q611 620 640 539 Q704 542 770 545 Q774 519 774 488 Q716 481 662 477 Q680 427 699 379 Q769 392 842 404 Q854 378 854 348 Q788 332 723 318 Q738 280 753 244 Q791 266 830 287 Q855 272 871 240 Q826 207 781 176 Q802 124 824 75 Q855 92 887 111 Q909 88 913 65 Q859 16 794 -5 Q756 64 722 137 Q633 79 541 27 Q512 44 501 77 Q586 143 690 207 Q669 255 650 303 Q556 284 463 269 Q450 296 447 324 Q533 346 626 365 Q606 418 588 472 Q519 468 454 468 Q448 494 448 523 Q507 529 567 534 Q544 606 524 679 Q551 696 584 704 ZM786 721 Q824 675 853 619 Q831 599 800 584 Q760 632 733 686 Q755 705 786 721 Z" /><glyph glyph-name="" unicode="&#x656c;" d="M288 712 Q305 712 320 706 Q320 658 318 606 Q372 602 424 596 Q434 639 446 681 Q476 674 506 661 Q502 621 497 586 Q535 581 569 576 Q569 548 563 522 Q523 522 486 523 Q476 474 461 436 Q439 436 403 453 Q406 491 412 527 Q362 530 314 535 Q311 493 307 448 Q296 445 274 445 Q252 445 242 452 Q242 501 243 543 Q195 550 147 558 Q147 588 153 616 Q200 614 246 611 Q249 670 255 710 Q270 712 288 712 ZM214 436 Q241 426 266 406 Q259 389 252 374 Q401 373 524 366 Q553 173 553 3 Q514 -6 443 -6 Q434 24 434 44 Q462 48 485 52 Q475 177 463 301 Q341 306 223 311 Q189 241 150 170 Q118 178 92 205 Q149 324 214 436 ZM730 641 Q767 633 788 608 Q766 552 737 497 Q822 476 906 444 Q904 416 892 389 Q825 389 705 438 Q672 380 633 323 Q600 330 582 353 Q633 493 730 641 ZM651 273 Q694 253 734 232 Q757 277 784 322 Q819 314 839 291 Q822 244 800 198 Q858 167 909 138 Q895 109 872 89 Q817 113 769 136 Q739 79 703 22 Q672 29 655 50 Q675 110 703 170 Q657 194 618 219 Q635 254 651 273 ZM372 216 Q385 136 385 51 Q312 33 224 32 Q204 84 200 198 Q279 216 372 216 ZM274 80 L327 89 L317 168 L263 160 L274 80 Z" /><glyph glyph-name="" unicode="&#x4e86;" d="M189 689 Q449 683 761 663 Q722 505 617 329 Q652 142 660 -13 Q625 -24 582 -24 Q537 -24 494 -18 L494 36 Q535 40 583 40 Q554 190 537 333 Q593 462 662 591 Q431 601 187 614 Q183 626 183 652 Q183 685 189 689 Z" /><glyph glyph-name="" unicode="&#x8f6e;" d="M677 578 Q586 492 497 412 Q471 436 450 472 Q585 601 712 708 Q735 687 759 656 Q742 640 726 625 Q832 553 929 474 Q913 446 885 428 Q774 501 677 578 ZM599 464 Q617 464 632 460 Q636 375 639 299 Q726 320 821 336 Q828 309 830 275 Q741 247 641 235 Q643 156 643 86 Q748 86 860 84 Q862 67 862 55 Q862 35 858 22 Q825 16 705 16 Q608 16 575 30 Q565 143 565 215 Q565 323 566 460 Q583 464 599 464 ZM132 567 Q181 567 228 566 Q257 622 289 683 Q316 674 345 657 Q324 608 303 563 Q383 560 460 553 L460 525 Q460 505 457 495 Q354 495 274 498 Q245 431 217 371 Q257 369 297 367 Q298 405 300 443 Q314 446 329 446 Q345 446 357 443 Q359 401 361 364 Q410 362 458 359 Q458 332 453 306 Q403 306 362 307 L362 279 Q362 257 362 237 Q407 241 449 241 Q453 230 453 216 Q453 200 449 189 Q418 178 361 167 Q360 97 357 38 Q351 34 329 34 Q313 34 306 38 Q300 95 298 157 Q235 147 153 139 Q139 160 139 199 Q220 220 295 230 Q295 252 295 274 Q295 292 296 309 Q162 313 118 326 Q146 394 196 501 Q160 503 131 505 Q127 512 127 536 Q127 551 132 567 Z" /><glyph glyph-name="" unicode="&#x79d2;" d="M424 653 Q431 624 431 592 Q280 564 127 557 Q114 580 114 619 Q262 640 424 653 ZM115 399 Q176 399 245 396 Q246 456 250 517 Q265 521 283 521 Q302 521 316 517 Q320 449 321 392 Q365 389 412 385 Q412 357 406 324 Q362 324 322 325 L322 251 Q367 247 408 240 Q407 227 405 214 Q403 196 399 186 Q370 186 340 191 Q330 192 321 194 Q319 119 315 55 Q307 51 282 51 Q262 51 254 55 Q249 123 246 198 Q196 159 144 129 Q121 147 107 169 Q164 228 244 273 L244 329 Q178 333 114 340 L114 372 Q114 386 115 399 ZM700 663 Q736 431 736 302 Q701 294 668 294 Q630 294 618 303 Q615 309 615 323 Q615 337 617 345 Q640 346 664 346 Q656 504 641 655 Q668 661 700 663 ZM524 498 Q560 490 580 466 Q552 402 499 333 Q466 340 449 362 Q475 428 524 498 ZM808 511 Q867 489 923 454 Q916 435 894 402 Q832 426 779 460 Q790 491 808 511 ZM833 263 Q857 248 872 218 Q746 109 612 20 Q584 37 573 68 Q682 167 833 263 Z" /><glyph glyph-name="" unicode="&#x6c11;" d="M206 485 Q243 484 276 480 Q267 277 251 67 Q296 59 362 50 Q362 29 350 -11 Q253 -8 177 15 Q177 19 182 136 Q185 194 188 253 Q195 370 206 485 ZM814 237 Q825 208 831 173 Q787 159 729 145 Q751 95 772 48 Q797 65 825 78 Q848 58 849 42 Q813 -1 739 -19 Q694 36 658 127 L658 128 Q583 112 493 94 Q483 125 479 162 Q555 181 629 198 Q614 238 602 278 Q632 295 657 303 Q678 257 698 213 Q757 226 814 237 ZM804 726 Q822 665 822 495 Q822 386 802 340 Q800 322 609 322 Q431 322 391 331 Q387 347 387 361 Q387 378 391 399 Q484 398 595 397 Q685 397 734 400 Q742 410 742 495 Q742 558 732 655 Q304 641 157 641 Q147 647 145 676 Q145 695 149 709 Q468 726 804 726 Z" /><glyph glyph-name="" unicode="&#x540d;" d="M331 449 Q395 440 468 402 Q552 489 625 579 Q489 601 348 626 Q336 604 322 578 Q241 424 221 413 Q183 424 160 445 Q170 470 243 606 Q315 733 336 763 Q372 755 403 740 Q401 728 382 692 Q589 660 731 618 Q679 515 581 415 Q387 197 280 139 Q250 158 232 183 Q329 264 414 348 Q358 363 313 398 Q320 426 331 449 ZM541 255 Q668 254 788 239 Q797 212 797 116 Q797 39 793 2 Q742 -7 621 -7 Q524 -7 439 8 Q426 39 426 115 Q426 150 431 240 Q444 244 464 244 Q479 244 494 240 Q494 204 497 65 Q612 57 726 57 Q730 77 730 116 Q730 144 728 178 Q581 187 545 192 Q539 202 539 226 Q539 241 541 255 Z" /><glyph glyph-name="" unicode="&#x5e74;" d="M289 744 Q328 740 354 723 Q337 683 318 643 Q560 641 795 616 Q795 584 789 553 Q531 553 285 576 Q265 540 253 513 Q243 494 233 477 Q225 458 206 433 Q172 444 146 465 Q219 618 289 744 ZM371 440 Q454 437 536 430 Q539 468 543 505 Q560 507 580 507 Q603 505 611 501 Q610 462 608 424 Q685 416 760 405 Q760 378 754 353 Q679 353 606 357 Q603 284 599 212 Q716 207 830 198 Q830 165 824 133 Q707 133 594 136 Q588 49 580 -38 Q572 -42 545 -42 Q523 -42 509 -36 Q512 53 516 138 Q337 144 163 157 Q163 194 171 223 Q219 223 267 222 Q268 342 273 406 Q288 408 308 408 Q326 408 341 403 Q341 320 336 221 Q429 220 520 216 Q525 291 530 363 Q447 370 365 383 Q365 412 371 440 Z" /><glyph glyph-name="" unicode="&#x60a8;" d="M301 212 Q333 194 353 172 Q329 136 297 102 Q282 85 264 68 Q248 50 230 33 Q202 51 182 77 Q233 147 301 212 ZM434 150 Q454 150 467 148 Q471 105 477 60 Q538 60 608 64 Q614 50 614 34 Q614 15 612 3 Q588 -7 514 -7 Q438 -7 417 -1 Q403 75 403 146 Q422 150 434 150 ZM566 245 Q606 195 623 155 Q608 142 577 129 Q544 164 518 220 Q539 237 566 245 ZM760 203 Q784 158 793 111 Q764 100 735 100 Q713 145 706 192 Q733 201 760 203 ZM213 525 Q173 513 130 504 Q111 523 103 557 Q208 611 343 645 Q363 621 365 592 Q325 568 279 549 Q300 457 310 357 Q281 348 248 348 Q225 436 213 525 ZM483 734 Q518 728 545 711 Q536 693 529 678 Q681 675 840 662 Q840 594 832 541 Q819 537 801 537 Q782 537 770 545 L770 601 Q631 605 497 618 Q468 567 447 541 Q409 547 386 565 Q434 655 483 734 ZM638 542 Q666 362 666 284 Q638 275 602 275 Q571 275 547 279 Q540 300 540 321 Q562 329 594 329 Q584 434 578 536 Q608 542 638 542 ZM442 448 Q474 439 507 425 Q483 370 440 314 Q405 323 380 343 Q408 400 442 448 ZM781 438 Q803 413 812 362 Q784 347 756 344 Q731 376 726 423 Q750 434 781 438 Z" /><glyph glyph-name="" unicode="&#x6392;" d="M205 475 Q203 518 201 561 Q232 566 265 568 Q270 520 274 474 Q330 473 368 468 Q372 460 372 439 Q372 416 368 409 Q358 405 281 403 Q285 355 288 308 Q320 310 349 310 Q353 298 353 283 Q353 267 349 255 Q329 249 293 244 Q296 194 298 144 Q273 134 234 134 Q229 186 224 236 Q188 232 145 229 Q130 251 130 292 Q176 299 218 303 Q213 354 210 403 Q113 403 104 409 Q100 421 100 440 Q100 458 105 472 Q150 475 205 475 ZM509 555 L541 555 Q543 612 547 669 Q562 671 580 671 Q598 671 614 668 Q614 510 610 369 Q610 203 602 52 Q591 50 569 50 Q551 50 539 53 Q538 127 538 201 Q468 191 405 191 Q398 221 398 253 Q465 264 537 270 L537 337 Q485 331 412 331 Q406 363 406 395 Q448 402 526 404 L538 404 Q538 447 539 488 Q523 487 505 487 Q456 487 433 490 Q427 502 427 520 Q427 537 431 551 Q449 555 509 555 ZM775 583 Q779 544 782 506 Q835 511 893 513 Q897 483 897 449 Q840 443 786 442 Q790 400 792 360 Q842 364 895 366 Q899 336 899 301 Q845 296 796 295 Q798 261 799 227 Q847 232 898 234 Q902 204 902 169 Q850 164 801 163 Q803 94 804 27 Q794 23 775 23 Q756 23 746 25 Q716 305 712 579 Q729 583 744 583 L775 583 Z" /><glyph glyph-name="" unicode="&#x57f9;" d="M686 725 Q693 682 695 647 Q787 643 877 636 Q877 605 870 576 Q651 576 433 590 Q433 623 440 655 Q534 654 627 650 Q622 683 622 719 Q655 725 686 725 ZM539 527 Q562 475 571 421 Q537 408 504 408 Q484 460 476 513 Q508 524 539 527 ZM755 550 Q783 543 811 531 Q795 435 750 377 Q729 377 696 393 Q709 475 755 550 ZM427 376 Q672 369 921 359 L921 329 Q921 307 916 292 Q673 294 423 307 Q419 320 419 343 Q419 359 427 376 ZM613 227 Q730 221 824 207 Q824 75 804 12 Q778 -4 666 -4 Q563 -4 491 18 Q480 98 477 207 Q508 211 539 211 Q547 146 551 74 Q657 70 746 70 Q746 100 753 147 Q675 152 611 168 Q611 199 613 227 ZM114 446 Q164 444 215 440 Q216 494 217 534 Q233 536 252 536 Q270 536 286 530 Q286 483 286 433 Q329 429 373 423 Q373 393 366 357 Q324 357 285 359 Q284 285 283 209 Q317 211 351 212 Q355 182 355 148 Q233 137 121 137 Q114 167 114 200 Q163 203 213 206 Q213 295 214 365 Q161 370 112 380 Q112 414 114 446 Z" /><glyph glyph-name="" unicode="&#x5176;" d="M847 265 Q851 253 851 235 Q851 211 849 201 Q509 182 151 178 Q147 208 147 240 Q222 244 300 247 Q302 420 316 597 Q219 598 173 604 Q169 618 169 635 Q169 652 171 663 Q234 665 321 665 Q324 706 328 747 Q355 747 384 743 Q384 703 383 665 Q526 665 626 662 Q627 706 629 749 Q645 753 663 753 Q682 753 696 749 Q699 702 700 660 Q757 658 795 655 Q796 643 796 628 L796 599 Q777 598 702 598 L702 556 Q702 390 695 261 Q770 263 847 265 ZM381 597 Q380 547 378 499 Q395 500 417 500 Q489 500 529 497 Q533 485 533 469 Q533 455 531 443 Q495 438 413 438 Q390 438 375 439 Q373 412 371 386 Q451 394 523 394 Q527 383 527 369 Q527 354 523 343 Q484 333 366 324 Q363 286 359 250 Q490 255 631 259 Q624 393 624 550 Q624 574 625 597 L381 597 ZM343 166 Q374 158 408 143 Q379 66 327 -13 Q291 -5 266 16 Q301 98 343 166 ZM713 139 Q755 90 789 31 Q766 10 735 -5 Q689 46 658 104 Q681 122 713 139 Z" /><glyph glyph-name="" unicode="&#x524d;" d="M660 380 Q679 270 681 182 Q663 172 621 172 Q595 260 595 374 Q628 380 660 380 ZM809 460 Q851 245 858 34 Q822 21 714 21 Q708 46 708 75 Q743 77 780 79 Q763 269 745 450 Q772 456 809 460 ZM279 455 Q374 455 482 443 Q482 178 468 8 Q345 8 323 24 Q323 48 325 70 Q368 70 402 68 Q404 235 406 386 Q339 390 277 398 Q275 412 275 427 Q275 446 279 455 ZM221 253 Q219 232 217 211 Q280 208 353 192 Q353 162 344 138 Q263 138 210 150 Q203 89 195 29 Q161 33 129 38 Q145 243 169 435 Q206 433 236 429 Q232 370 226 311 Q286 310 353 301 Q353 271 344 246 Q270 246 221 253 ZM175 607 Q386 602 597 595 Q614 673 659 742 Q690 735 721 721 Q708 645 676 593 Q764 590 851 587 L851 558 Q851 535 846 521 Q513 523 171 539 Q167 552 167 574 Q167 591 175 607 ZM362 743 Q398 707 412 636 Q381 619 350 615 Q310 660 303 726 Q328 737 362 743 Z" /><glyph glyph-name="" unicode="&#x9752;" d="M835 453 Q837 442 837 427 L837 399 Q506 374 183 374 Q177 402 177 431 Q322 441 474 447 Q472 472 470 497 Q365 491 259 490 Q255 518 255 548 Q356 555 467 560 Q465 589 465 616 Q316 620 206 629 Q202 636 202 660 Q202 675 207 691 Q337 691 463 686 Q462 715 462 743 Q480 745 501 747 Q523 747 537 745 Q539 714 540 684 Q666 679 791 670 L791 642 Q791 622 787 612 Q655 612 542 614 Q543 588 544 564 Q639 569 741 572 Q745 561 745 544 Q745 522 743 513 Q644 505 545 500 Q546 474 546 449 Q688 453 835 453 ZM321 283 Q342 283 355 281 Q357 252 358 224 Q374 225 396 225 Q481 225 529 221 Q533 209 533 193 Q533 179 531 167 Q488 164 393 164 Q374 164 360 165 Q361 141 361 119 Q377 120 399 120 Q482 120 529 116 Q533 104 533 88 Q533 74 531 62 Q489 58 396 58 Q377 58 363 59 Q364 7 364 -44 Q353 -50 331 -50 Q312 -50 299 -48 Q284 113 284 279 Q301 281 321 283 ZM406 341 Q575 341 712 333 Q740 140 740 -29 Q699 -36 627 -36 Q620 -11 620 4 Q650 8 675 11 Q665 142 654 271 Q528 278 404 283 Q402 294 402 314 Q402 326 406 341 Z" /><glyph glyph-name="" unicode="&#x65e5;" d="M372 687 Q715 683 777 674 Q788 464 788 354 Q788 101 773 47 Q728 36 508 36 Q317 36 216 47 Q203 154 203 311 Q203 482 214 645 Q245 645 275 643 Q275 523 277 404 Q399 399 526 384 Q526 358 519 325 Q390 325 278 340 Q280 222 283 104 Q346 101 504 100 Q650 102 712 104 Q716 308 716 354 Q716 502 708 609 Q536 611 370 624 Q370 657 372 687 Z" /><glyph glyph-name="" unicode="&#x5584;" d="M677 346 Q704 340 730 328 Q721 282 702 248 Q762 250 821 250 Q825 238 825 225 Q825 209 821 197 Q672 174 207 155 Q194 176 194 215 Q290 225 382 232 Q350 260 324 290 Q349 311 374 325 Q413 291 446 253 Q439 243 429 235 Q455 237 480 239 Q475 288 473 338 Q365 331 264 331 Q258 358 258 388 Q362 400 471 408 L471 422 Q471 442 472 462 Q391 457 289 452 Q275 474 275 513 Q377 523 473 528 Q474 558 476 586 L366 586 Q241 586 186 594 Q182 608 182 625 Q182 643 184 654 Q255 656 356 656 Q330 688 308 727 Q330 744 357 752 Q409 699 435 656 Q522 656 591 655 Q616 717 656 775 Q691 767 714 749 Q698 702 671 654 Q743 653 789 652 Q791 641 791 625 L791 596 Q755 589 545 587 Q546 558 547 532 Q633 536 713 536 Q717 525 717 511 Q717 495 713 484 Q659 475 549 467 L549 413 Q641 420 737 424 Q741 397 741 365 Q643 352 548 344 Q547 289 543 243 Q587 245 629 246 Q643 298 677 346 ZM452 128 Q627 128 733 125 Q743 65 743 6 Q743 -37 739 -50 Q688 -65 555 -65 Q413 -65 361 -52 Q353 -29 349 22 Q345 63 345 91 Q359 95 382 97 Q406 97 415 95 Q421 52 421 5 Q486 1 555 1 Q616 1 667 7 Q665 34 661 63 Q598 64 543 65 Q500 65 452 68 Q448 87 448 99 Q448 114 452 128 Z" /><glyph glyph-name="" unicode="&#x793e;" d="M486 467 Q566 463 643 457 Q643 542 649 631 Q663 635 679 635 Q697 635 710 631 Q715 534 715 453 L715 451 Q795 445 872 437 Q872 412 863 379 Q790 379 715 384 Q714 234 712 112 Q813 116 916 116 Q918 105 918 89 L918 60 Q682 36 453 36 Q447 66 447 97 Q548 106 653 110 Q645 241 643 389 Q562 396 480 408 Q480 441 486 467 ZM81 551 Q239 545 399 506 Q399 455 172 160 Q143 172 117 195 Q227 358 295 453 Q192 474 71 494 Q71 524 81 551 ZM282 267 Q298 267 311 263 Q313 240 314 222 Q372 214 425 205 Q425 173 413 141 Q366 143 317 150 Q317 69 311 24 Q303 18 282 18 Q261 18 252 24 Q242 78 242 155 Q242 212 252 263 Q267 267 282 267 ZM228 707 Q291 701 365 665 Q358 634 341 606 Q266 611 208 646 Q215 680 228 707 Z" /><glyph glyph-name="" unicode="&#x751f;" d="M262 634 Q299 622 329 605 Q245 417 154 243 Q117 255 95 276 Q171 459 262 634 ZM390 515 Q471 515 550 513 Q555 614 563 690 Q578 692 598 692 Q616 692 631 687 Q631 600 629 510 Q743 506 856 497 L856 466 Q856 443 852 431 Q728 431 627 434 Q625 360 621 283 Q694 280 772 274 Q772 244 766 211 Q691 211 617 215 Q614 143 609 70 Q704 67 806 62 Q806 33 800 -1 Q560 -1 325 15 L325 48 Q325 62 327 75 Q425 75 539 72 Q539 151 540 219 Q472 223 405 230 L405 263 Q405 277 407 290 Q470 290 541 287 Q543 367 546 436 Q457 439 388 445 Q384 452 384 480 Q384 497 390 515 Z" /><glyph glyph-name="" unicode="&#x5341;" d="M482 704 Q501 704 519 700 Q519 551 516 417 Q680 409 842 400 Q848 383 848 362 Q848 346 842 328 Q676 330 515 338 Q515 164 511 5 Q499 3 476 3 Q457 3 443 7 Q436 171 435 341 Q285 348 139 359 Q133 378 133 396 Q133 415 139 433 Q288 427 435 421 Q437 559 447 702 Q462 704 482 704 Z" /><glyph glyph-name="" unicode="&#x65f6;" d="M221 576 Q310 569 390 557 Q398 431 398 360 Q398 223 384 169 Q346 161 245 161 Q177 161 124 169 Q115 239 115 343 Q115 473 118 572 Q136 577 149 577 Q161 577 174 576 Q178 488 180 411 Q230 407 278 401 Q278 379 270 350 Q227 350 181 356 Q183 286 183 224 Q200 220 245 220 Q313 220 329 225 Q333 273 333 500 Q274 510 219 518 Q217 537 217 546 Q217 559 221 576 ZM474 295 Q539 266 599 216 Q586 188 564 169 Q497 202 443 248 Q458 275 474 295 ZM747 691 Q760 607 769 525 Q842 524 889 518 Q892 510 892 488 Q892 466 889 459 Q876 454 777 453 Q797 258 803 66 Q768 49 663 49 Q657 73 657 101 Q691 104 726 108 Q714 284 701 453 Q505 454 485 459 Q482 471 482 490 Q482 508 487 522 Q583 525 696 525 Q690 604 684 682 Q711 688 747 691 Z" /><glyph glyph-name="" unicode="&#x662f;" d="M402 740 Q594 734 748 721 Q748 514 729 416 Q672 408 427 408 Q332 408 266 427 Q257 542 255 699 Q288 703 320 703 Q323 658 325 611 Q340 612 362 612 Q430 612 469 605 Q472 593 472 578 Q472 564 471 552 L359 552 Q340 552 327 553 Q329 515 330 478 Q515 468 670 468 Q670 542 678 662 Q525 667 400 683 Q400 713 402 740 ZM492 296 Q344 291 194 289 Q191 318 191 348 Q470 364 822 373 Q826 362 826 345 Q826 322 824 313 Q696 304 567 299 Q569 264 569 231 Q661 227 756 213 Q756 188 751 156 Q654 156 570 170 Q571 141 571 113 Q559 108 536 108 Q516 108 503 109 Q494 202 492 296 ZM260 230 Q296 226 329 220 Q320 163 311 92 Q503 70 716 41 Q712 12 705 -18 Q457 0 231 42 Q244 147 260 230 Z" /><glyph glyph-name="" unicode="&#x6240;" d="M156 555 Q290 555 506 515 Q516 471 516 388 Q516 289 506 258 Q479 238 391 238 Q311 238 265 242 Q261 256 261 271 Q261 292 267 300 Q354 306 440 308 Q440 382 434 455 Q346 461 246 478 Q239 421 219 306 Q202 202 173 100 Q146 100 122 105 Q122 237 185 488 Q168 491 151 494 Q151 531 156 555 ZM891 638 Q899 609 899 575 Q741 528 581 516 Q567 539 567 580 Q722 616 891 638 ZM762 319 Q676 319 638 321 Q635 291 632 259 Q623 152 607 47 Q576 47 546 53 Q546 197 584 480 Q617 480 648 472 Q648 447 643 387 Q703 389 771 389 Q861 389 916 382 Q919 373 919 353 Q919 331 916 324 Q906 320 836 319 Q847 182 847 40 Q836 34 813 34 Q794 34 781 36 Q763 176 762 319 ZM464 714 Q470 697 470 683 Q472 672 472 647 Q328 627 187 617 Q178 636 178 654 L178 686 Q322 703 464 714 Z" /><glyph glyph-name="" unicode="&#x63d0;" d="M207 507 Q203 561 201 613 Q233 619 267 621 Q273 564 278 507 Q352 506 400 500 Q404 491 404 469 Q404 446 400 438 Q388 434 285 433 Q291 368 295 305 Q334 307 370 307 Q374 295 374 280 Q374 263 370 251 Q345 244 299 237 Q304 173 307 110 Q281 100 241 100 Q234 165 228 228 Q183 223 128 219 Q114 242 114 284 Q170 294 222 299 Q216 367 212 433 Q101 434 90 438 Q86 451 86 471 Q86 489 92 503 Q146 506 207 507 ZM631 295 Q543 291 456 291 Q451 320 451 350 Q649 366 873 366 Q875 354 875 339 L875 311 Q789 303 704 299 Q705 268 706 237 Q784 232 859 224 Q859 200 851 169 Q781 169 707 178 Q708 136 708 95 Q696 89 673 89 Q654 89 641 91 Q632 191 631 295 ZM672 718 Q767 718 831 711 Q834 614 834 502 Q834 459 829 424 Q790 418 712 418 Q585 418 495 427 Q492 520 492 637 Q492 669 495 713 Q569 718 672 718 ZM558 657 L558 609 Q607 608 663 601 Q663 573 654 549 Q597 549 558 554 L558 478 L764 478 L764 657 L558 657 ZM478 200 Q513 197 544 191 Q537 143 529 82 Q632 61 747 35 Q744 5 736 -25 Q588 -8 453 32 Q464 126 478 200 Z" /><glyph glyph-name="" unicode="&#x5b8c;" d="M209 293 Q497 293 780 280 L780 250 Q780 228 776 217 Q419 217 207 226 Q203 234 203 260 Q203 276 209 293 ZM456 472 Q599 472 670 469 L670 410 Q552 402 347 402 Q341 433 341 463 Q382 469 456 472 ZM168 659 Q186 659 202 654 Q202 544 190 408 Q178 404 155 404 Q131 404 122 412 Q122 574 133 657 Q149 659 168 659 ZM308 642 Q384 642 458 641 Q454 690 454 740 Q471 742 493 744 Q514 744 528 742 Q529 691 529 639 Q691 636 848 628 Q861 525 861 431 Q851 427 832 427 Q820 427 800 429 Q791 472 782 566 Q548 566 310 579 Q306 593 306 612 Q306 626 308 642 ZM655 157 Q661 88 666 18 Q691 18 740 20 Q743 7 743 -8 L743 -37 Q741 -44 670 -44 Q649 -44 610 -42 Q592 56 592 152 Q620 155 655 157 ZM353 161 Q389 158 414 143 Q376 1 350 -55 Q313 -55 290 -40 Q314 76 353 161 Z" /><glyph glyph-name="" unicode="&#x4e60;" d="M388 479 Q474 467 575 405 Q569 380 556 358 Q452 367 372 430 Q378 457 388 479 ZM585 290 Q607 271 620 242 Q554 202 484 167 Q445 148 413 130 Q377 110 340 95 Q317 118 306 144 Q335 165 372 187 Q406 207 440 225 Q474 242 510 260 Q546 275 585 290 ZM202 631 Q496 621 794 593 Q814 416 814 64 Q802 58 740 58 Q682 58 650 69 Q648 81 648 99 Q648 114 650 126 Q698 125 742 122 Q738 343 724 527 Q472 541 198 569 Q196 590 196 604 Q196 613 202 631 Z" /><glyph glyph-name="" unicode="&#x559c;" d="M182 729 Q251 731 352 731 L438 731 Q441 763 447 792 Q462 796 477 796 Q494 796 507 792 Q510 758 512 731 Q688 729 772 727 Q774 717 774 702 L774 675 Q739 668 513 666 Q512 627 510 601 Q626 600 678 598 Q679 588 679 574 L679 549 Q653 540 448 540 Q339 540 291 547 Q288 559 288 574 Q288 589 289 600 Q352 601 442 601 Q437 631 436 666 L350 666 Q234 666 184 673 Q180 686 180 702 Q180 718 182 729 ZM378 502 Q586 502 698 478 Q703 440 703 388 Q703 334 696 313 Q640 300 461 300 Q299 300 260 320 Q254 361 254 393 Q254 433 256 488 Q270 491 285 491 Q303 491 312 490 Q321 404 321 365 Q370 358 460 358 Q593 358 640 360 Q642 396 642 430 Q609 436 378 450 Q376 462 376 478 Q376 490 378 502 ZM211 226 Q276 226 339 225 Q332 248 332 272 Q364 278 393 278 Q408 248 414 225 Q502 224 586 222 Q593 253 605 279 Q635 277 669 268 Q666 244 659 220 Q728 219 795 216 L795 189 Q795 173 790 157 Q502 157 213 167 Q209 185 209 198 Q209 212 211 226 ZM436 130 Q548 130 685 116 Q694 98 694 27 Q694 -33 685 -51 Q638 -59 455 -59 Q356 -59 312 -46 Q302 -13 302 23 Q302 69 313 120 Q324 123 339 123 Q356 123 367 120 L367 6 Q483 0 626 0 Q628 31 628 61 Q523 68 432 80 L432 107 Q432 119 436 130 Z" /><glyph glyph-name="" unicode="&#x620f;" d="M252 566 Q364 565 432 560 Q430 502 346 285 Q415 261 482 231 Q480 206 469 182 Q409 182 319 216 Q292 148 259 70 Q225 76 205 94 Q228 169 252 243 Q204 264 150 293 Q154 322 163 343 Q219 329 274 310 Q305 408 338 504 Q275 501 216 501 Q158 501 151 503 Q143 528 143 557 Q190 564 252 566 ZM890 500 Q892 488 892 473 L892 444 Q792 432 694 427 Q720 361 747 299 Q784 321 821 342 Q845 323 858 294 Q825 263 778 230 Q801 177 825 128 Q846 132 868 142 Q885 128 891 101 Q881 85 789 50 Q749 120 716 189 Q642 144 545 96 Q521 120 510 146 Q589 203 682 260 Q645 342 616 423 Q543 420 470 420 Q464 449 464 481 Q527 487 593 491 Q573 554 557 616 Q588 632 616 638 Q641 565 667 495 Q776 500 890 500 ZM847 674 Q888 629 919 575 Q898 556 869 542 Q825 588 796 641 Q818 658 847 674 Z" /><glyph glyph-name="" unicode="&#x5fc3;" d="M612 605 Q654 541 671 489 Q654 475 617 460 Q583 505 556 576 Q580 595 612 605 ZM853 505 Q900 446 919 399 Q903 385 867 371 Q828 411 798 477 Q822 496 853 505 ZM285 543 Q314 525 334 498 Q269 398 127 264 Q93 282 80 314 Q178 441 285 543 ZM422 394 Q443 394 456 389 Q464 279 473 164 Q597 164 730 161 Q734 148 734 134 Q734 116 732 99 Q643 94 508 94 Q453 94 404 101 Q390 228 390 387 Q409 394 422 394 Z" /><glyph glyph-name="" unicode="&#x4fe1;" d="M352 525 Q366 500 366 467 Q302 443 241 425 Q274 291 289 148 Q259 139 226 139 Q192 272 173 406 Q129 395 86 387 Q75 412 75 442 Q215 511 352 525 ZM650 731 Q668 731 682 726 Q688 666 689 621 Q783 615 872 608 Q872 580 863 542 Q633 542 387 568 Q387 605 394 636 Q502 632 605 626 Q607 679 617 726 Q633 731 650 731 ZM600 482 Q702 482 759 480 Q763 466 763 448 Q763 433 761 419 Q710 413 596 413 Q547 413 524 417 Q518 429 518 446 Q518 464 522 478 Q539 482 600 482 ZM798 221 Q814 125 814 24 Q670 0 498 -2 Q474 61 468 197 Q621 221 798 221 ZM556 63 L746 74 L734 156 L542 147 L556 63 ZM461 359 Q588 353 702 341 Q700 326 698 311 Q695 289 691 278 Q632 278 573 283 Q514 287 455 295 Q455 326 461 359 Z" /><glyph glyph-name="" unicode="&#x884c;" d="M303 237 Q319 137 326 29 Q296 19 261 19 Q242 122 233 228 Q268 237 303 237 ZM728 607 Q824 607 882 600 Q885 591 885 569 Q885 546 882 539 Q867 533 728 533 Q553 533 537 539 Q534 551 534 571 Q534 589 539 604 Q624 607 728 607 ZM518 344 Q688 344 914 326 Q914 296 908 262 Q838 262 770 265 Q783 148 787 29 Q770 19 731 19 Q690 19 669 23 Q663 44 663 64 Q693 68 720 68 Q704 168 703 267 Q608 272 516 282 L516 316 Q516 330 518 344 ZM434 676 Q448 646 448 612 Q279 562 108 530 Q94 560 90 592 Q250 640 434 676 ZM402 385 Q416 356 416 322 Q266 275 116 244 Q102 274 98 305 Q239 350 402 385 Z" /><glyph glyph-name="" unicode="&#x5b66;" d="M515 736 Q543 699 555 623 Q527 608 500 605 Q468 652 463 721 Q485 732 515 736 ZM735 735 Q772 732 798 717 Q769 624 750 587 Q712 587 688 602 Q706 679 735 735 ZM273 726 Q326 659 348 605 Q332 591 296 577 Q252 623 218 698 Q242 717 273 726 ZM207 533 Q224 533 240 528 Q240 433 229 315 Q218 311 195 311 Q172 311 163 319 Q163 459 173 531 Q188 533 207 533 ZM291 549 Q575 549 849 546 Q862 443 862 349 Q852 345 833 345 Q821 345 801 347 Q792 391 783 485 Q541 485 293 488 Q289 502 289 521 Q289 534 291 549 ZM320 393 Q489 386 663 353 Q629 266 574 185 Q577 174 580 163 Q688 167 803 170 Q807 159 807 142 Q807 119 805 109 Q700 103 595 99 Q609 25 609 -42 Q592 -48 539 -48 Q500 -48 465 -38 Q465 -14 469 9 L545 9 Q534 52 525 96 Q381 91 235 90 Q232 118 232 149 Q363 156 511 161 Q507 180 504 197 Q531 246 563 302 Q438 314 313 334 Q313 365 320 393 Z" /><glyph glyph-name="" unicode="&#x4e1a;" d="M796 482 Q834 473 856 447 Q810 340 727 227 Q692 234 674 258 Q716 366 796 482 ZM235 471 Q297 358 323 267 Q305 252 267 237 Q216 315 176 441 Q202 461 235 471 ZM144 136 Q272 136 398 132 Q367 399 353 667 Q386 673 421 675 Q454 402 469 129 Q505 128 540 126 Q553 429 585 696 Q602 697 622 697 Q645 696 653 692 Q643 407 612 122 Q743 115 870 103 L870 73 Q870 57 864 40 Q506 40 146 73 Q142 92 142 107 Q142 121 144 136 Z" /><glyph glyph-name="" unicode="&#x4e49;" d="M256 558 Q377 452 499 340 Q609 478 739 633 Q769 616 795 594 Q680 440 559 285 Q685 170 812 49 Q802 29 771 3 Q636 106 508 221 Q417 106 324 -8 Q293 7 269 33 Q349 146 448 275 Q325 389 206 515 Q233 542 256 558 ZM450 699 Q511 640 561 566 Q542 546 512 526 Q451 574 400 659 Q424 683 450 699 Z" /><glyph glyph-name="" unicode="&#x5e94;" d="M238 606 Q212 607 188 608 Q184 626 184 640 Q184 654 186 668 Q351 668 511 664 Q504 706 500 747 Q534 755 568 755 Q576 710 579 662 Q708 658 831 653 L831 625 Q831 609 825 593 Q563 593 302 604 Q259 388 196 166 Q153 166 131 182 Q177 394 238 606 ZM834 144 Q838 130 838 110 Q838 82 836 71 Q567 51 285 47 Q280 82 280 118 Q525 134 834 144 ZM775 438 Q812 429 834 403 Q788 309 704 208 Q670 216 652 239 Q694 335 775 438 ZM379 363 Q438 309 485 241 Q465 220 434 198 Q375 243 327 320 Q352 346 379 363 ZM503 494 Q576 424 634 336 Q615 315 584 293 Q511 351 451 451 Q476 477 503 494 Z" /><glyph glyph-name="" unicode="&#x7528;" d="M219 627 Q257 624 287 620 Q275 326 249 37 Q214 41 181 46 Q196 346 219 627 ZM544 654 Q682 654 783 650 Q828 344 828 26 Q764 13 696 13 Q687 30 685 65 Q718 70 755 74 Q746 330 716 583 Q655 580 541 580 Q535 580 531 580 Q533 514 534 447 Q592 443 650 436 Q650 408 643 373 Q587 373 535 376 Q536 337 536 299 Q588 295 639 289 Q639 260 633 225 Q583 225 537 227 Q538 138 538 45 Q525 40 500 40 Q472 40 463 42 Q461 141 460 232 Q394 238 335 247 Q335 280 338 311 Q398 309 459 305 Q458 344 458 381 Q399 386 345 395 Q345 428 347 458 Q402 456 457 453 Q457 517 457 577 Q427 576 394 575 Q387 606 387 644 Q450 651 544 654 Z" /><glyph glyph-name="" unicode="&#x6e38;" d="M317 514 Q456 507 594 471 Q594 445 588 420 Q526 420 467 428 Q448 370 427 316 Q484 302 542 283 Q542 131 503 31 Q454 31 384 51 Q388 96 396 96 Q421 94 456 92 Q470 177 472 237 Q433 246 404 259 Q387 216 375 182 Q366 157 356 136 Q348 110 328 78 Q296 88 272 108 Q338 286 401 438 Q356 447 312 459 Q312 487 317 514 ZM501 665 Q516 627 522 552 Q491 535 459 531 Q443 578 440 647 Q466 659 501 665 ZM125 627 Q194 619 276 578 Q268 546 252 518 Q169 524 105 566 Q113 600 125 627 ZM72 368 Q147 363 215 355 Q212 338 210 322 Q208 299 203 287 Q169 287 134 291 Q100 294 65 300 Q65 333 72 368 ZM219 158 Q240 130 249 101 Q197 57 138 42 Q117 70 106 98 Q162 138 219 158 ZM722 686 Q751 678 783 664 Q766 615 743 567 Q837 560 925 549 Q925 527 918 497 Q819 497 715 513 Q700 484 682 455 Q649 463 626 482 Q670 593 722 686 ZM638 442 Q769 430 900 414 Q868 340 803 261 Q807 249 810 238 Q847 241 884 243 Q895 214 895 188 Q859 182 824 177 Q828 157 831 139 Q842 37 842 22 Q816 14 780 14 Q721 14 676 22 Q674 44 674 68 L772 68 Q767 119 759 168 Q679 159 598 155 Q588 182 586 210 Q662 223 748 232 Q742 262 735 291 Q769 327 804 365 Q719 371 625 385 Q630 419 638 442 Z" /><glyph glyph-name="" unicode="&#x53cb;" d="M131 637 Q252 632 370 626 Q407 711 444 794 Q484 786 512 770 Q482 694 452 622 Q670 610 887 596 Q892 579 892 559 Q892 544 887 527 Q650 530 421 545 Q317 287 209 36 Q175 40 149 62 Q236 307 338 550 Q232 558 131 567 Q125 585 125 602 Q125 620 131 637 ZM400 366 Q661 362 761 349 Q744 237 689 116 Q767 91 842 65 Q835 34 819 6 Q738 26 657 50 Q634 4 606 -42 Q581 -42 549 -24 Q569 24 588 71 Q516 93 443 119 Q451 157 466 184 Q542 162 616 139 Q648 215 679 290 Q534 294 394 304 Q394 340 400 366 Z" /><glyph glyph-name="" unicode="&#x80b2;" d="M516 745 Q535 745 551 739 Q551 701 548 657 Q692 650 835 644 L835 616 Q835 595 831 581 Q624 583 417 593 Q384 523 355 464 Q487 456 621 446 Q621 419 616 393 Q326 395 253 420 Q273 463 309 532 Q326 564 345 597 Q269 601 195 606 Q191 617 191 639 Q191 654 199 670 Q337 665 473 660 Q475 713 479 743 Q496 745 516 745 ZM286 329 Q321 327 350 323 Q346 268 340 217 L367 217 Q428 217 463 216 Q466 204 466 189 Q466 176 465 164 Q433 159 363 159 Q345 159 333 160 Q330 132 326 106 Q342 107 363 107 Q429 107 466 106 Q469 95 469 80 Q469 67 468 55 Q434 49 359 49 Q335 49 319 50 Q314 12 308 -23 Q275 -19 244 -15 Q261 163 286 329 ZM403 343 Q586 343 734 346 Q763 151 763 -20 Q719 -28 639 -28 Q631 -1 631 17 Q666 21 695 24 Q685 153 673 281 L402 281 Q400 293 400 314 Q400 327 403 343 ZM713 530 Q740 494 751 423 Q723 407 695 404 Q664 449 658 515 Q681 525 713 530 Z" /><glyph glyph-name="" unicode="&#x8f7d;" d="M640 629 Q661 564 681 500 Q789 503 901 506 Q905 494 905 476 Q905 451 903 441 Q802 435 704 431 Q728 357 752 284 Q783 318 814 350 Q845 336 867 319 Q823 259 778 206 Q794 157 810 110 Q836 115 868 120 Q877 101 883 73 Q835 54 765 48 Q745 99 728 145 Q660 64 622 30 Q594 45 579 74 Q637 152 699 223 Q661 328 629 427 Q515 422 401 419 Q414 413 426 406 Q414 386 403 367 Q467 362 530 352 L530 325 Q530 305 527 295 Q436 295 363 300 Q338 257 315 221 Q352 219 389 216 Q390 242 391 266 Q404 270 419 270 Q436 270 448 266 Q449 238 450 212 Q485 210 520 208 Q520 180 514 154 Q481 154 452 155 Q453 127 453 102 Q453 99 453 98 Q488 99 522 99 Q526 87 526 73 Q526 58 522 46 Q496 42 452 38 Q451 -7 447 -43 Q440 -47 419 -47 Q402 -47 396 -43 Q390 -6 388 33 Q328 29 247 25 Q233 46 233 85 Q312 92 386 96 Q386 97 386 97 Q386 127 387 157 Q258 162 216 177 Q242 226 289 305 Q290 306 290 306 Q257 310 230 315 Q227 321 227 345 Q227 360 232 374 Q282 374 331 371 Q346 395 361 418 Q254 415 148 414 Q144 445 144 478 Q218 482 296 485 Q293 519 292 560 Q240 564 189 571 L189 605 Q189 618 191 632 Q239 632 292 629 Q294 666 300 700 Q314 704 328 704 Q343 704 355 700 Q360 656 361 624 Q410 620 463 614 Q463 585 458 552 Q408 552 361 555 Q360 515 358 488 Q479 493 607 497 Q590 554 575 607 Q599 623 640 629 ZM774 666 Q807 629 834 584 Q810 562 777 547 Q741 585 717 628 Q741 648 774 666 Z" /><glyph glyph-name="" unicode="&#x503c;" d="M367 544 Q380 519 380 486 Q314 463 252 446 Q284 313 299 171 Q270 161 237 161 Q203 294 184 428 Q139 416 97 409 Q86 435 86 464 Q227 531 367 544 ZM505 441 Q508 411 511 382 Q541 385 583 386 Q631 386 656 385 L656 332 Q602 324 516 323 Q518 307 519 292 Q549 295 591 296 L664 296 L664 242 Q610 234 524 233 Q526 215 527 200 Q559 203 602 204 L670 204 L670 150 Q617 142 531 141 Q533 121 534 102 Q501 97 469 97 Q444 264 437 435 Q469 441 505 441 ZM895 93 Q898 79 898 63 L898 30 Q653 14 401 7 Q396 39 396 72 Q519 79 644 85 Q704 88 764 90 L764 428 Q715 428 648 439 Q557 445 530 451 Q530 488 534 512 Q570 511 604 509 Q603 541 603 573 Q525 579 448 589 Q448 621 455 651 Q529 649 602 644 Q601 687 601 728 Q619 730 640 732 Q662 732 675 730 Q674 684 674 639 Q765 632 855 621 Q855 591 849 563 Q760 563 674 568 Q673 536 673 505 Q756 498 839 488 Q840 453 840 249 Q837 137 833 92 Q864 93 895 93 Z" /><glyph glyph-name="" unicode="&#x4e2d;" d="M572 612 Q743 612 834 608 Q851 586 853 389 Q853 243 847 208 Q750 179 541 176 Q541 103 541 7 Q532 1 507 1 Q481 1 471 5 Q464 77 461 175 Q210 176 137 202 Q131 276 131 405 Q131 476 140 598 L208 598 Q203 414 203 260 Q285 245 459 245 Q458 303 458 369 Q458 439 459 540 Q371 536 307 536 L307 601 Q385 607 460 610 Q461 664 462 725 Q482 729 501 729 Q520 729 538 725 Q538 662 538 611 Q556 612 572 612 ZM538 543 Q539 410 539 367 Q540 335 540 246 Q741 251 781 263 L781 400 Q781 433 771 540 Q715 542 550 544 Q544 544 538 543 Z" /><glyph glyph-name="" unicode="&#x4e3b;" d="M503 506 Q524 506 540 498 Q542 399 543 303 Q645 300 755 294 Q755 264 749 229 Q644 229 544 232 L544 190 Q544 117 538 50 Q636 53 738 53 Q740 41 740 24 L740 -6 Q500 -30 265 -30 Q259 1 259 34 Q358 42 463 47 Q458 115 458 184 L458 234 Q330 238 204 246 L204 281 Q204 296 206 310 Q324 310 460 306 Q463 402 469 498 Q487 506 503 506 ZM184 641 Q319 641 453 637 Q422 679 398 725 Q421 744 454 761 Q505 702 545 634 Q693 629 839 619 L839 589 Q839 566 836 555 Q426 555 182 572 Q178 580 178 607 Q178 624 184 641 Z" /></font>
</defs>
</svg>
